# xmcd CD database file
#
# Track frame offsets:
#	150
#	22930
#	50060
#	69725
#	105082
#	122935
#	146957
#	160260
#	175420
#	190062
#	228017
#	260615
#	279997
#	294902
#
# Disc length: 4130 seconds
#
# Revision: 2
# Processed by: cddbd v1.5.1PL2 Copyright (c) Steve Scherf et al.
# Submitted via: CDex 1.51
#
DISCID=c610200e
DTITLE=Tadeusz Nalepa - 1987-1988 To moj blues vol.II
DYEAR=1991
DGENRE=Blues
TTITLE0=Pozwol mi byc z toba tu          
TTITLE1=Hold                             
TTITLE2=Ten o tobie film                 
TTITLE3=Dbaj o milosc
TTITLE4=On sloncem mym                   
TTITLE5=Nie zaluj mnie                   
TTITLE6=Wiec badz                        
TTITLE7=Juz wstal twoj dzien             
TTITLE8=Swiety boze nie pomoze          
TTITLE9=Jedz ostroznie nie popedzaj kol  
TTITLE10=Musisz walczyc, musisz wierzyc  
TTITLE11=Dzielo twoich rak               
TTITLE12=Nie uciekaj, dokad uciec chcesz 
TTITLE13=Nie takich ludzi znales         
EXTD=YEAR: 1991
EXTT0=
EXTT1=
EXTT2=
EXTT3=
EXTT4=
EXTT5=
EXTT6=
EXTT7=
EXTT8=
EXTT9=
EXTT10=
EXTT11=
EXTT12=
EXTT13=
PLAYORDER=
